<svg id="visual" viewBox="0 0 900 600" width="900" height="600" xmlns="http://www.w3.org/2000/svg" xmlns:xlink="http://www.w3.org/1999/xlink" version="1.1"><path d="M0 43L69 37L138 49L208 49L277 55L346 43L415 55L485 43L554 49L623 37L692 55L762 43L831 49L900 49L900 0L831 0L762 0L692 0L623 0L554 0L485 0L415 0L346 0L277 0L208 0L138 0L69 0L0 0Z" fill="#ecfadc"></path><path d="M0 67L69 55L138 73L208 73L277 73L346 61L415 73L485 61L554 67L623 55L692 73L762 61L831 73L900 73L900 47L831 47L762 41L692 53L623 35L554 47L485 41L415 53L346 41L277 53L208 47L138 47L69 35L0 41Z" fill="#e6f6d6"></path><path d="M0 103L69 79L138 97L208 103L277 109L346 85L415 97L485 85L554 103L623 79L692 97L762 85L831 109L900 109L900 71L831 71L762 59L692 71L623 53L554 65L485 59L415 71L346 59L277 71L208 71L138 71L69 53L0 65Z" fill="#dff3d0"></path><path d="M0 139L69 115L138 127L208 133L277 139L346 121L415 133L485 121L554 133L623 115L692 127L762 115L831 145L900 145L900 107L831 107L762 83L692 95L623 77L554 101L485 83L415 95L346 83L277 107L208 101L138 95L69 77L0 101Z" fill="#d9f0cb"></path><path d="M0 241L69 253L138 241L208 259L277 259L346 259L415 229L485 235L554 235L623 247L692 259L762 223L831 253L900 265L900 143L831 143L762 113L692 125L623 113L554 131L485 119L415 131L346 119L277 137L208 131L138 125L69 113L0 137Z" fill="#d2ecc5"></path><path d="M0 271L69 277L138 265L208 289L277 289L346 283L415 253L485 265L554 259L623 271L692 289L762 247L831 277L900 295L900 263L831 251L762 221L692 257L623 245L554 233L485 233L415 227L346 257L277 257L208 257L138 239L69 251L0 239Z" fill="#cbe9c0"></path><path d="M0 313L69 313L138 301L208 331L277 319L346 319L415 295L485 301L554 307L623 319L692 337L762 283L831 313L900 331L900 293L831 275L762 245L692 287L623 269L554 257L485 263L415 251L346 281L277 287L208 287L138 263L69 275L0 269Z" fill="#c4e5ba"></path><path d="M0 379L69 391L138 367L208 403L277 403L346 391L415 373L485 385L554 373L623 379L692 415L762 361L831 397L900 385L900 329L831 311L762 281L692 335L623 317L554 305L485 299L415 293L346 317L277 317L208 329L138 299L69 311L0 311Z" fill="#bde2b5"></path><path d="M0 403L69 409L138 385L208 427L277 421L346 415L415 397L485 409L554 391L623 403L692 433L762 385L831 415L900 403L900 383L831 395L762 359L692 413L623 377L554 371L485 383L415 371L346 389L277 401L208 401L138 365L69 389L0 377Z" fill="#b6deb1"></path><path d="M0 517L69 523L138 517L208 517L277 517L346 517L415 517L485 517L554 517L623 523L692 535L762 523L831 529L900 511L900 401L831 413L762 383L692 431L623 401L554 389L485 407L415 395L346 413L277 419L208 425L138 383L69 407L0 401Z" fill="#afdbac"></path><path d="M0 577L69 571L138 571L208 577L277 577L346 577L415 577L485 571L554 577L623 577L692 577L762 577L831 571L900 571L900 509L831 527L762 521L692 533L623 521L554 515L485 515L415 515L346 515L277 515L208 515L138 515L69 521L0 515Z" fill="#a7d7a7"></path><path d="M0 601L69 601L138 601L208 601L277 601L346 601L415 601L485 601L554 601L623 601L692 601L762 601L831 601L900 601L900 569L831 569L762 575L692 575L623 575L554 575L485 569L415 575L346 575L277 575L208 575L138 569L69 569L0 575Z" fill="#9fd4a3"></path></svg>