<svg id="visual" viewBox="0 0 900 600" width="900" height="600" xmlns="http://www.w3.org/2000/svg" xmlns:xlink="http://www.w3.org/1999/xlink" version="1.1"><path d="M0 49L69 49L138 37L208 37L277 37L346 55L415 43L485 55L554 49L623 43L692 43L762 43L831 49L900 43L900 0L831 0L762 0L692 0L623 0L554 0L485 0L415 0L346 0L277 0L208 0L138 0L69 0L0 0Z" fill="#ca8b17"></path><path d="M0 73L69 79L138 61L208 67L277 67L346 79L415 67L485 85L554 79L623 67L692 73L762 73L831 79L900 73L900 41L831 47L762 41L692 41L623 41L554 47L485 53L415 41L346 53L277 35L208 35L138 35L69 47L0 47Z" fill="#b58114"></path><path d="M0 163L69 169L138 205L208 187L277 181L346 199L415 187L485 211L554 199L623 175L692 187L762 175L831 175L900 193L900 71L831 77L762 71L692 71L623 65L554 77L485 83L415 65L346 77L277 65L208 65L138 59L69 77L0 71Z" fill="#a27812"></path><path d="M0 181L69 187L138 223L208 211L277 199L346 223L415 205L485 235L554 223L623 199L692 205L762 199L831 193L900 211L900 191L831 173L762 173L692 185L623 173L554 197L485 209L415 185L346 197L277 179L208 185L138 203L69 167L0 161Z" fill="#8f6e11"></path><path d="M0 223L69 229L138 259L208 247L277 229L346 253L415 247L485 265L554 265L623 235L692 247L762 241L831 229L900 253L900 209L831 191L762 197L692 203L623 197L554 221L485 233L415 203L346 221L277 197L208 209L138 221L69 185L0 179Z" fill="#7d6310"></path><path d="M0 307L69 313L138 319L208 313L277 295L346 313L415 313L485 343L554 325L623 313L692 325L762 319L831 301L900 337L900 251L831 227L762 239L692 245L623 233L554 263L485 263L415 245L346 251L277 227L208 245L138 257L69 227L0 221Z" fill="#6c5910"></path><path d="M0 337L69 343L138 361L208 349L277 331L346 343L415 349L485 373L554 361L623 343L692 361L762 355L831 331L900 373L900 335L831 299L762 317L692 323L623 311L554 323L485 341L415 311L346 311L277 293L208 311L138 317L69 311L0 305Z" fill="#5c4f10"></path><path d="M0 355L69 361L138 385L208 367L277 349L346 367L415 367L485 397L554 385L623 367L692 379L762 373L831 355L900 397L900 371L831 329L762 353L692 359L623 341L554 359L485 371L415 347L346 341L277 329L208 347L138 359L69 341L0 335Z" fill="#4d450f"></path><path d="M0 499L69 493L138 499L208 481L277 475L346 481L415 499L485 493L554 487L623 493L692 481L762 499L831 493L900 505L900 395L831 353L762 371L692 377L623 365L554 383L485 395L415 365L346 365L277 347L208 365L138 383L69 359L0 353Z" fill="#403a0f"></path><path d="M0 547L69 547L138 553L208 547L277 541L346 535L415 547L485 541L554 535L623 535L692 541L762 541L831 541L900 547L900 503L831 491L762 497L692 479L623 491L554 485L485 491L415 497L346 479L277 473L208 479L138 497L69 491L0 497Z" fill="#33300d"></path><path d="M0 577L69 577L138 577L208 577L277 565L346 565L415 577L485 565L554 565L623 565L692 571L762 571L831 565L900 577L900 545L831 539L762 539L692 539L623 533L554 533L485 539L415 545L346 533L277 539L208 545L138 551L69 545L0 545Z" fill="#27260b"></path><path d="M0 601L69 601L138 601L208 601L277 601L346 601L415 601L485 601L554 601L623 601L692 601L762 601L831 601L900 601L900 575L831 563L762 569L692 569L623 563L554 563L485 563L415 575L346 563L277 563L208 575L138 575L69 575L0 575Z" fill="#1d1c06"></path></svg>