<svg id="visual" viewBox="0 0 900 600" width="900" height="600" xmlns="http://www.w3.org/2000/svg" xmlns:xlink="http://www.w3.org/1999/xlink" version="1.1"><rect x="0" y="0" width="900" height="600" fill="#B3896F"></rect><path d="M0 449L129 361L257 355L386 424L514 370L643 382L771 397L900 368L900 601L771 601L643 601L514 601L386 601L257 601L129 601L0 601Z" fill="#d59164"></path><path d="M0 446L129 471L257 400L386 399L514 422L643 468L771 474L900 439L900 601L771 601L643 601L514 601L386 601L257 601L129 601L0 601Z" fill="#cf8857"></path><path d="M0 508L129 442L257 488L386 466L514 444L643 475L771 461L900 478L900 601L771 601L643 601L514 601L386 601L257 601L129 601L0 601Z" fill="#c9804a"></path><path d="M0 499L129 494L257 525L386 492L514 529L643 524L771 481L900 494L900 601L771 601L643 601L514 601L386 601L257 601L129 601L0 601Z" fill="#c2783d"></path><path d="M0 535L129 532L257 540L386 565L514 525L643 535L771 537L900 552L900 601L771 601L643 601L514 601L386 601L257 601L129 601L0 601Z" fill="#bb702f"></path></svg>